<?xml version="1.0" encoding="utf-8"?>
<!-- Generator: Adobe Illustrator 20.1.0, SVG Export Plug-In . SVG Version: 6.00 Build 0)  -->
<svg version="1.1" id="Layer_1" xmlns="http://www.w3.org/2000/svg" xmlns:xlink="http://www.w3.org/1999/xlink" x="0px" y="0px"
	 viewBox="0 0 20 20" style="enable-background:new 0 0 20 20;" xml:space="preserve">
<style type="text/css">
	.st0{fill:#231F20;}
</style>
<title>Instagram</title>
<desc>Created with Sketch.</desc>
<g id="Symbols">
	<g id="Footer" transform="translate(-1040.000000, -31.000000)">
		<g id="Instagram">
			<path class="st0" d="M1056.5,35.7c0,0.7-0.5,1.2-1.2,1.2c-0.7,0-1.2-0.5-1.2-1.2c0-0.7,0.5-1.2,1.2-1.2S1056.5,35,1056.5,35.7z
				 M1050,44.3c-1.8,0-3.3-1.5-3.3-3.3s1.5-3.3,3.3-3.3s3.3,1.5,3.3,3.3S1051.8,44.3,1050,44.3z M1050,35.9c-2.8,0-5.1,2.3-5.1,5.1
				s2.3,5.1,5.1,5.1s5.1-2.3,5.1-5.1S1052.8,35.9,1050,35.9z M1050,32.8c2.7,0,3,0,4,0.1c1,0,1.5,0.2,1.9,0.3
				c0.5,0.2,0.8,0.4,1.1,0.7c0.3,0.3,0.6,0.7,0.7,1.1c0.1,0.4,0.3,0.9,0.3,1.9c0,1.1,0.1,1.4,0.1,4c0,2.7,0,3-0.1,4
				c0,1-0.2,1.5-0.3,1.9c-0.2,0.5-0.4,0.8-0.7,1.1c-0.3,0.3-0.7,0.6-1.1,0.7c-0.4,0.1-0.9,0.3-1.9,0.3c-1.1,0-1.4,0.1-4,0.1
				c-2.7,0-3,0-4-0.1c-1,0-1.5-0.2-1.9-0.3c-0.5-0.2-0.8-0.4-1.1-0.7c-0.3-0.3-0.6-0.7-0.7-1.1c-0.1-0.4-0.3-0.9-0.3-1.9
				c0-1.1-0.1-1.4-0.1-4c0-2.7,0-3,0.1-4c0-1,0.2-1.5,0.3-1.9c0.2-0.5,0.4-0.8,0.7-1.1c0.3-0.3,0.7-0.6,1.1-0.7
				c0.4-0.1,0.9-0.3,1.9-0.3C1047,32.8,1047.3,32.8,1050,32.8z M1050,31c-2.7,0-3.1,0-4.1,0.1c-1.1,0-1.8,0.2-2.4,0.5
				c-0.7,0.3-1.2,0.6-1.8,1.2c-0.6,0.6-0.9,1.1-1.2,1.8c-0.2,0.6-0.4,1.4-0.5,2.4c0,1.1-0.1,1.4-0.1,4.1s0,3.1,0.1,4.1
				c0,1.1,0.2,1.8,0.5,2.4c0.3,0.7,0.6,1.2,1.2,1.8c0.6,0.6,1.1,0.9,1.8,1.2c0.6,0.2,1.4,0.4,2.4,0.5c1.1,0,1.4,0.1,4.1,0.1
				s3.1,0,4.1-0.1c1.1,0,1.8-0.2,2.4-0.5c0.7-0.3,1.2-0.6,1.8-1.2c0.6-0.6,0.9-1.1,1.2-1.8c0.2-0.6,0.4-1.4,0.5-2.4
				c0-1.1,0.1-1.4,0.1-4.1s0-3.1-0.1-4.1c0-1.1-0.2-1.8-0.5-2.4c-0.3-0.7-0.6-1.2-1.2-1.8c-0.6-0.6-1.1-0.9-1.8-1.2
				c-0.6-0.2-1.4-0.4-2.4-0.5C1053.1,31,1052.7,31,1050,31z"/>
		</g>
	</g>
</g>
</svg>
