<?xml version="1.0" encoding="utf-8"?>
<!-- Generator: Adobe Illustrator 20.1.0, SVG Export Plug-In . SVG Version: 6.00 Build 0)  -->
<svg version="1.1" id="Layer_1" xmlns="http://www.w3.org/2000/svg" xmlns:xlink="http://www.w3.org/1999/xlink" x="0px" y="0px"
	 viewBox="0 0 90 50" style="enable-background:new 0 0 90 50;" xml:space="preserve">
<style type="text/css">
	.st0{fill:#FFFFFF;}
</style>
<rect x="0" width="90" height="50"/>
<g>
	<g>
		<path class="st0" d="M44.2,5.8c4.1,11.4,8.2,22.9,12.4,34.5c0.2-0.7,0.4-1.2,0.6-1.7C61,27.9,64.8,17.3,68.7,6.6
			C69,5.7,69,5.7,70,5.7c0.1,0,0.2,0,0.4,0c-4.6,12.8-9.2,25.5-13.8,38.4c-4.5-12.6-9-25-13.4-37.5c-3.5,0-6.9,0-10.4,0
			c0,0.4-0.1,0.7-0.1,1c0.2,1.1-0.5,1.6-1.3,2.1c0-1,0-2,0-3.1c-3.2,0-6.4,0-9.7,0c0-0.3,0-0.6,0-0.9C29.2,5.8,36.7,5.8,44.2,5.8z"
			/>
		<path class="st0" d="M54.3,40.4C54.3,40.4,54.3,40.4,54.3,40.4c0.6,1.5,0.8,1.1-0.6,1.8c-3.4,1.8-7.1,2.3-11,2
			c-7.9-0.7-14.2-6.8-16.2-12.9c-1-3-1.3-6-0.8-9.1c1-7.1,5.1-12,11.4-15.1c0.2-0.1,0.3-0.1,0.5-0.1c1.6,0,3.2,0,4.8,0
			c-5.9,0.9-10.3,4-13.2,9.1c-2.9,5.2-3.1,10.6-0.8,16c2.2,5,5.9,8.4,11.1,10C44.6,43.8,49.6,43.2,54.3,40.4z"/>
		<path class="st0" d="M32.6,37.1c-0.4-0.5-0.8-0.8-1.1-1.2c-0.1-0.1-0.1-0.3-0.1-0.5c0-6.9,0-13.8,0-20.7c0-0.2,0.1-0.4,0.2-0.6
			c0.3-0.4,0.6-0.7,1-1.1C32.6,21,32.6,29,32.6,37.1z"/>
		<path class="st0" d="M20.3,38.2c0.7,2.6,2.1,4.5,4.9,4.8c2.5,0.2,4.6-0.6,5.8-3.1c0.3,0.3,0.6,0.5,0.8,0.7c0.1,0.1,0.1,0.4,0,0.5
			c-1.1,1.8-2.7,2.9-4.8,3.1c-3.2,0.4-6.3-1.7-7.2-4.8c0-0.1,0-0.3-0.1-0.5C19.5,38.4,19.7,38.2,20.3,38.2z"/>
		<path class="st0" d="M45.1,5.7c4.7,0.1,8.8,1.6,12.4,4.7c-0.3,0.3-0.6,0.6-0.9,0.8c-1.3-0.8-2.6-1.7-3.9-2.4
			c-2-1.1-4.2-1.6-6.5-1.7c-0.5,0-0.7-0.1-0.8-0.6C45.3,6.2,45.2,6,45.1,5.7z"/>
	</g>
</g>
</svg>
