<?xml version="1.0" encoding="utf-8"?>
<!-- Generator: Adobe Illustrator 20.1.0, SVG Export Plug-In . SVG Version: 6.00 Build 0)  -->
<svg version="1.1" id="Layer_1" xmlns="http://www.w3.org/2000/svg" xmlns:xlink="http://www.w3.org/1999/xlink" x="0px" y="0px"
	 viewBox="0 0 20 20" style="enable-background:new 0 0 20 20;" xml:space="preserve">
<g>
	<path d="M11.2,8.5c0.2-0.3,0.5-0.6,0.7-0.8c0.6-0.7,1.4-1,2.3-1.1c0.9-0.1,1.7,0,2.6,0.3c1,0.4,1.7,1,2.2,1.9
		c0.6,1.1,0.8,2.2,0.8,3.4c0,2.4,0,4.7,0,7.1c0,0,0,0.1,0,0.1c-1.4,0-2.8,0-4.2,0c0-0.1,0-0.1,0-0.2c0-2.1,0-4.3,0-6.4
		c0-0.6,0-1.1-0.2-1.6c-0.3-0.9-1.1-1.4-2-1.3c-1,0.1-1.8,0.8-2,1.6c-0.1,0.3-0.1,0.7-0.1,1c0,2.2,0,4.4,0,6.6c0,0.1,0,0.1,0,0.2
		c-1.4,0-2.8,0-4.2,0c0-4.2,0-8.3,0-12.5c0.1,0,0.1,0,0.2,0c1.3,0,2.5,0,3.8,0c0.1,0,0.2,0,0.2,0.2c0,0.5,0,0.9,0,1.4
		C11.2,8.4,11.2,8.4,11.2,8.5z"/>
	<path d="M4.7,6.8c0,4.2,0,8.3,0,12.5c-0.1,0-0.1,0-0.2,0c-1.3,0-2.5,0-3.8,0c-0.2,0-0.2,0-0.2-0.2c0-4.1,0-8.1,0-12.2
		c0-0.1,0-0.2,0.2-0.2c1.3,0,2.5,0,3.8,0C4.6,6.8,4.6,6.8,4.7,6.8z"/>
	<path d="M2.6,5.1c-0.8,0-1.5-0.3-2-1c-0.8-1.2-0.2-2.8,1.2-3.2c0.8-0.2,1.6-0.2,2.3,0.3c0.7,0.5,1,1.2,0.9,2C4.9,4,4.4,4.6,3.6,4.9
		C3.3,5,2.9,5,2.6,5.1C2.6,5.1,2.6,5.1,2.6,5.1z"/>
</g>
</svg>
