<?xml version="1.0" encoding="UTF-8"?>
<svg width="20px" height="20px" viewBox="0 0 20 20" version="1.1" xmlns="http://www.w3.org/2000/svg" xmlns:xlink="http://www.w3.org/1999/xlink">
    <!-- Generator: Sketch 42 (36781) - http://www.bohemiancoding.com/sketch -->
    <title>Instagram</title>
    <desc>Created with Sketch.</desc>
    <defs>
        <radialGradient cx="14.9305469%" cy="100.347188%" fx="14.9305469%" fy="100.347188%" r="127.774922%" id="radialGradient-1">
            <stop stop-color="#FFB140" offset="0%"></stop>
            <stop stop-color="#FF5445" offset="25.59%"></stop>
            <stop stop-color="#FC2B82" offset="59.9%"></stop>
            <stop stop-color="#8E40B7" offset="100%"></stop>
        </radialGradient>
    </defs>
    <g id="Symbols" stroke="none" stroke-width="1" fill="none" fill-rule="evenodd">
        <g id="Footer" transform="translate(-1040.000000, -31.000000)" fill="url(#radialGradient-1)">
            <g id="Instagram">
                <path d="M1056.53797,35.6620313 C1056.53797,36.3248438 1056.00063,36.8620313 1055.33797,36.8620313 C1054.67531,36.8620313 1054.13797,36.3248438 1054.13797,35.6620313 C1054.13797,34.9992188 1054.67531,34.4620313 1055.33797,34.4620313 C1056.00078,34.4620313 1056.53797,34.9992188 1056.53797,35.6620313 Z M1050,44.3332813 C1048.15906,44.3332813 1046.66672,42.8409375 1046.66672,41 C1046.66672,39.1590625 1048.15906,37.6667188 1050,37.6667188 C1051.84094,37.6667188 1053.33328,39.1590625 1053.33328,41 C1053.33328,42.8409375 1051.84094,44.3332813 1050,44.3332813 Z M1050,35.8648438 C1047.16391,35.8648438 1044.86484,38.1639063 1044.86484,41 C1044.86484,43.8360938 1047.16391,46.1351563 1050,46.1351563 C1052.83609,46.1351563 1055.13516,43.8360938 1055.13516,41 C1055.13516,38.1639063 1052.83609,35.8648438 1050,35.8648438 Z M1050,32.801875 C1052.67016,32.801875 1052.98641,32.8120313 1054.04078,32.8601563 C1055.01578,32.9046875 1055.54531,33.0675 1055.89766,33.2045313 C1056.36437,33.3859375 1056.6975,33.6026563 1057.0475,33.9526563 C1057.3975,34.3025 1057.61422,34.635625 1057.79562,35.1025 C1057.9325,35.4548438 1058.09547,35.984375 1058.14,36.959375 C1058.18812,38.0139063 1058.19828,38.3301563 1058.19828,41.0003125 C1058.19828,43.6704688 1058.18812,43.9867188 1058.14,45.0410938 C1058.09547,46.0160938 1057.93266,46.545625 1057.79562,46.8979688 C1057.61422,47.3646875 1057.3975,47.6978125 1057.0475,48.0478125 C1056.69766,48.3978125 1056.36453,48.6145313 1055.89766,48.7959375 C1055.54531,48.9328125 1055.01578,49.0957813 1054.04078,49.1403125 C1052.98641,49.1884375 1052.67016,49.1985938 1050,49.1985938 C1047.32969,49.1985938 1047.01344,49.1884375 1045.95906,49.1403125 C1044.98406,49.0957813 1044.45453,48.9329688 1044.10219,48.7959375 C1043.63547,48.6145313 1043.30234,48.3978125 1042.95234,48.0478125 C1042.6025,47.6979688 1042.38562,47.3648438 1042.20422,46.8979688 C1042.06734,46.545625 1041.90437,46.0160938 1041.85984,45.0410938 C1041.81172,43.9865625 1041.80156,43.6703125 1041.80156,41.0003125 C1041.80156,38.3301563 1041.81172,38.0139063 1041.85984,36.959375 C1041.90437,35.984375 1042.06719,35.4548438 1042.20422,35.1025 C1042.38562,34.6357813 1042.60234,34.3026563 1042.95234,33.9526563 C1043.30219,33.6026563 1043.63531,33.3859375 1044.10219,33.2045313 C1044.45453,33.0676563 1044.98406,32.9046875 1045.95906,32.8601563 C1047.01359,32.8120313 1047.32984,32.801875 1050,32.801875 Z M1050,31 C1047.28422,31 1046.94359,31.0115625 1045.87703,31.0601562 C1044.81266,31.10875 1044.08562,31.2778125 1043.44969,31.525 C1042.79203,31.7804688 1042.23438,32.1225 1041.67844,32.6784375 C1041.1225,33.234375 1040.78047,33.7920313 1040.525,34.4496875 C1040.27781,35.0857812 1040.10875,35.8126563 1040.06016,36.8770313 C1040.01156,37.9435937 1040,38.2842188 1040,41 C1040,43.7157812 1040.01156,44.0564063 1040.06016,45.1229687 C1040.10875,46.1873437 1040.27781,46.9142188 1040.525,47.5503125 C1040.78047,48.2079687 1041.1225,48.765625 1041.67844,49.3215625 C1042.23438,49.8775 1042.79203,50.219375 1043.44969,50.475 C1044.08578,50.7221875 1044.81266,50.89125 1045.87703,50.9398437 C1046.94359,50.9884375 1047.28422,51 1050,51 C1052.71578,51 1053.05641,50.9884375 1054.12297,50.9398437 C1055.18734,50.89125 1055.91422,50.7221875 1056.55031,50.475 C1057.20797,50.219375 1057.76562,49.8775 1058.32156,49.3215625 C1058.8775,48.765625 1059.21937,48.2079687 1059.475,47.5503125 C1059.72219,46.9142188 1059.89125,46.1873437 1059.93984,45.1229687 C1059.98844,44.0564063 1060,43.7157812 1060,41 C1060,38.2842188 1059.98844,37.9435937 1059.93984,36.8770313 C1059.89125,35.8126563 1059.72219,35.0857812 1059.475,34.4496875 C1059.21937,33.7920313 1058.8775,33.234375 1058.32156,32.6784375 C1057.76562,32.1225 1057.20797,31.780625 1056.55031,31.525 C1055.91422,31.2778125 1055.18734,31.10875 1054.12297,31.0601562 C1053.05641,31.0115625 1052.71578,31 1050,31 Z"></path>
            </g>
        </g>
    </g>
</svg>